<?xml version="1.0" standalone="no"?>
<!DOCTYPE svg PUBLIC "-//W3C//DTD SVG 20010904//EN"
 "http://www.w3.org/TR/2001/REC-SVG-20010904/DTD/svg10.dtd">
<svg version="1.0" xmlns="http://www.w3.org/2000/svg"
 width="2220.000000pt" height="600.000000pt" viewBox="0 0 2220.000000 600.000000"
 preserveAspectRatio="xMidYMid meet">

<g transform="translate(0.000000,600.000000) scale(0.100000,-0.100000)"
fill="#000000" stroke="none">
<path d="M18585 4851 c-11 -5 -29 -19 -40 -31 -18 -19 -20 -39 -23 -161 l-4
-139 -71 0 -72 1 28 20 c41 31 37 74 -19 176 -58 106 -85 123 -171 105 -70
-15 -128 -52 -137 -88 -5 -20 3 -48 33 -111 23 -47 41 -89 41 -94 0 -5 -45 -9
-99 -9 -99 0 -99 0 -125 -31 -22 -26 -26 -40 -26 -94 0 -53 4 -69 24 -92 l24
-28 183 -5 183 -5 23 -60 c13 -32 23 -63 23 -66 0 -4 -72 -9 -161 -11 l-161
-3 -24 -28 c-20 -23 -24 -39 -24 -88 0 -127 5 -129 405 -129 l316 0 -3 -27 -3
-28 -281 -5 c-256 -5 -284 -7 -302 -23 -26 -24 -37 -87 -22 -132 21 -65 24
-65 332 -65 l278 0 0 -30 0 -30 -376 0 -376 0 -28 -28 c-49 -50 -52 -145 -5
-199 l23 -28 244 -5 243 -5 -80 -37 c-104 -47 -264 -102 -340 -117 -141 -28
-158 -44 -126 -116 27 -60 108 -140 158 -155 34 -10 51 -9 118 9 152 42 312
119 475 228 l65 43 5 -137 c3 -76 9 -144 14 -152 25 -38 163 -55 229 -28 57
24 62 37 67 188 l5 138 60 -46 c143 -107 337 -203 482 -238 l73 -18 55 28 c86
41 180 178 155 225 -12 22 -19 25 -129 45 -99 19 -260 71 -351 113 l-65 31
230 0 c162 1 237 5 255 14 41 20 60 71 60 165 l0 82 -415 0 -415 0 0 30 0 30
288 0 c319 0 321 0 342 65 16 50 4 110 -27 135 -24 19 -41 20 -314 20 l-289 0
0 30 0 30 320 0 c386 0 404 4 410 95 5 67 -1 95 -24 122 l-24 28 -166 5 -166
5 41 68 40 67 164 0 c159 0 165 1 192 24 26 23 28 29 28 99 0 66 -3 79 -24
101 -23 24 -30 26 -118 26 -51 0 -93 4 -93 8 0 4 23 43 50 87 58 92 64 132 25
164 -26 20 -142 51 -191 51 -79 0 -185 -214 -144 -291 10 -18 7 -19 -55 -19
l-65 0 0 130 c0 145 -8 172 -55 195 -43 20 -147 20 -190 0 -47 -23 -55 -50
-55 -195 l0 -130 -49 0 -49 0 -4 140 c-3 137 -3 140 -31 167 -25 25 -35 28
-105 30 -42 2 -86 -1 -97 -6z m490 -646 c-14 -36 -25 -68 -25 -70 0 -3 -83 -5
-185 -5 l-185 0 0 24 c0 13 -7 43 -15 66 -8 23 -15 44 -15 46 0 2 101 4 225 4
l224 0 -24 -65z"/>
<path d="M12327 4826 c-52 -19 -72 -39 -109 -108 -27 -51 -69 -96 -167 -179
-36 -31 -39 -56 -11 -92 27 -34 116 -77 160 -77 43 0 100 37 143 93 l28 37 80
0 81 0 -94 -81 c-51 -44 -115 -91 -143 -104 -54 -26 -196 -69 -257 -78 -41 -6
-42 -6 -53 77 -8 58 -37 92 -87 101 -41 8 -507 -98 -520 -118 -20 -30 30 -164
78 -208 16 -15 39 -30 51 -33 14 -5 96 17 241 65 156 51 226 70 245 65 16 -4
41 -28 67 -64 l41 -57 -198 -5 c-128 -3 -205 -9 -219 -17 -43 -24 -45 -49 -42
-441 l3 -372 28 -27 c25 -26 35 -28 125 -33 l97 -5 -110 -41 c-60 -23 -150
-51 -200 -63 -146 -35 -163 -40 -169 -57 -9 -23 17 -65 67 -111 92 -85 146
-96 273 -58 208 62 383 143 434 202 28 32 30 37 17 56 -8 12 -36 34 -63 49
l-49 28 277 0 276 0 -34 -34 c-63 -63 -44 -89 121 -166 61 -28 145 -72 189
-97 67 -40 86 -46 129 -45 87 2 244 94 235 139 -4 21 -100 71 -282 145 l-129
53 89 6 c49 3 97 9 107 14 45 19 47 41 47 455 0 374 1 390 19 390 25 0 65 33
112 92 63 81 48 121 -51 133 -109 13 -234 49 -324 94 -88 45 -91 47 -88 78 4
37 -5 43 -78 59 -51 12 -45 12 102 13 l156 1 -5 -38 c-4 -34 -1 -42 22 -60 37
-29 97 -46 132 -38 91 23 227 266 176 317 -6 6 -42 20 -79 30 -63 17 -93 18
-379 12 l-310 -6 0 39 c0 35 -4 41 -35 56 -52 24 -119 30 -163 14z m392 -637
c68 -44 141 -79 226 -109 50 -19 49 -19 -300 -19 l-350 0 60 23 c81 31 158 71
218 112 27 19 56 34 65 34 8 0 44 -19 81 -41z m63 -326 c47 -42 42 -43 -412
-43 -405 0 -429 1 -423 18 14 41 21 42 427 42 348 0 391 -2 408 -17z m18 -243
l0 -30 -430 0 -430 0 0 23 c0 13 3 27 7 30 3 4 197 7 430 7 l423 0 0 -30z m0
-240 l0 -30 -427 2 -428 3 -3 28 -3 27 430 0 431 0 0 -30z"/>
<path d="M16628 4834 c-10 -3 -46 -40 -82 -83 -101 -123 -318 -287 -551 -419
-88 -49 -244 -122 -262 -122 -5 0 -20 -11 -33 -25 -21 -23 -22 -28 -11 -64 15
-51 79 -132 128 -162 56 -35 95 -30 204 22 195 95 419 249 587 404 l82 77 76
-68 c197 -179 351 -286 562 -392 157 -78 194 -83 258 -41 49 33 113 123 120
170 8 47 -6 59 -103 93 -210 74 -464 222 -634 370 -75 65 -86 78 -81 101 6 34
-26 68 -101 106 -56 29 -125 43 -159 33z"/>
<path d="M20399 4827 c-20 -8 -53 -24 -73 -36 -74 -46 -74 -87 -1 -201 l54
-85 -137 -5 c-80 -3 -146 -10 -158 -17 -33 -19 -47 -65 -42 -143 3 -60 8 -74
31 -98 l27 -27 183 -5 c147 -4 181 -8 179 -19 -5 -23 -200 -257 -265 -317 -34
-31 -86 -73 -115 -91 -72 -47 -88 -83 -72 -168 6 -34 24 -86 39 -116 43 -87
81 -89 188 -8 22 17 46 28 52 25 8 -5 11 -105 11 -321 0 -214 4 -322 11 -339
7 -14 26 -32 44 -41 39 -18 147 -20 194 -4 59 21 61 31 62 421 0 335 1 352 17
328 38 -56 75 -90 97 -90 45 0 122 88 143 163 18 66 2 96 -113 204 -58 54
-105 101 -105 105 0 4 25 46 56 93 82 125 144 262 144 317 0 37 -5 49 -32 75
-56 54 -111 73 -218 73 l-95 0 47 30 c52 33 78 64 78 96 0 23 -84 158 -117
186 -27 25 -72 30 -114 15z"/>
<path d="M7323 4814 c-12 -11 -38 -64 -58 -119 -52 -141 -154 -350 -203 -415
-36 -47 -42 -61 -42 -105 0 -55 33 -138 68 -169 20 -18 27 -18 97 -6 42 7 77
11 80 9 6 -7 -119 -177 -173 -235 -60 -64 -69 -88 -53 -150 15 -58 56 -140 73
-147 7 -2 46 4 85 14 40 10 134 27 210 39 76 11 152 23 169 26 27 5 32 2 38
-20 9 -38 47 -43 126 -17 36 11 72 21 78 21 9 0 12 -85 12 -339 l0 -340 24
-28 c21 -24 32 -28 95 -31 44 -3 83 1 102 8 61 26 59 -8 59 864 0 709 2 796
16 810 13 14 55 16 299 16 245 0 286 -2 299 -16 14 -14 16 -89 14 -717 l-3
-702 -73 -5 c-58 -4 -77 -9 -89 -25 -31 -42 4 -157 61 -199 21 -16 46 -22 106
-24 98 -5 167 16 219 67 l38 36 7 135 c3 74 9 478 12 897 l7 762 -31 30 -30
31 -536 0 -535 0 -28 -24 -28 -24 -5 -554 -5 -553 -39 153 c-21 84 -47 163
-57 176 -31 40 -70 42 -182 10 -12 -4 0 22 39 83 94 144 174 295 174 326 0 59
-63 122 -148 148 -39 11 -45 10 -69 -7 -16 -12 -44 -60 -71 -122 -39 -87 -49
-102 -69 -102 -39 0 -37 26 5 98 84 142 142 275 142 325 0 43 -16 65 -70 92
-70 35 -129 42 -157 19z m222 -956 c8 -28 14 -52 12 -53 -1 -2 -28 -6 -59 -9
-53 -7 -58 -6 -58 12 0 25 56 102 75 102 9 0 20 -20 30 -52z"/>
<path d="M10405 4819 c-31 -19 -42 -38 -66 -109 -44 -133 -129 -272 -235 -389
l-59 -65 -5 233 -5 233 -33 29 -32 29 -336 0 -336 0 -29 -29 -29 -29 0 -326 0
-325 24 -28 c24 -27 27 -28 153 -33 l128 -5 3 -402 2 -403 -34 0 c-22 0 -36 6
-40 16 -3 9 -6 143 -6 299 0 191 -4 292 -11 309 -13 27 -73 56 -117 56 -47 0
-101 -20 -117 -43 -13 -18 -15 -73 -15 -362 l0 -340 -22 -10 c-48 -21 -62
-106 -33 -203 17 -56 53 -92 93 -92 21 0 387 82 704 159 99 23 124 40 139 93
15 57 -2 152 -32 185 -26 27 -58 29 -144 8 -33 -8 -66 -14 -72 -15 -10 0 -13
30 -13 120 l0 120 79 0 c92 0 121 17 144 83 l12 38 52 -74 51 -74 4 -294 c3
-316 4 -323 57 -351 19 -10 114 -13 425 -13 452 0 445 -1 465 72 7 23 11 165
11 354 l0 315 55 79 c77 110 73 146 -20 175 -58 18 -147 65 -226 117 -38 25
-69 48 -69 49 0 2 29 46 64 97 114 163 216 401 201 467 -9 41 -53 76 -125 100
-56 19 -85 22 -208 21 l-142 -1 6 39 c8 50 -7 76 -59 103 -50 25 -171 35 -202
17z m-679 -334 c19 -25 19 -154 0 -180 -20 -27 -145 -35 -181 -11 -23 15 -25
22 -25 101 0 76 2 85 23 100 33 24 163 17 183 -10z m1009 -115 c6 -10 -85
-180 -97 -180 -13 0 -129 170 -123 180 8 13 212 13 220 0z m-558 -292 c51 -40
95 -36 149 13 20 19 21 19 69 -48 l48 -67 -39 -34 c-52 -46 -184 -132 -262
-171 l-64 -32 -42 20 c-32 16 -62 21 -124 21 l-83 0 3 113 3 112 72 5 c97 7
122 30 130 118 l6 62 49 -43 c27 -23 65 -54 85 -69z m538 -374 c33 -25 86 -62
119 -82 l60 -37 -117 -3 c-64 -1 -171 -1 -238 0 l-122 3 79 52 c44 28 95 65
114 82 19 17 38 30 41 31 3 0 32 -21 64 -46z m103 -490 c-5 -126 -3 -124 -175
-124 -171 0 -173 1 -173 130 l0 90 176 0 176 0 -4 -96z"/>
<path d="M13835 4801 c-49 -28 -75 -63 -75 -99 0 -9 18 -57 40 -107 22 -49 40
-90 40 -92 0 -2 -54 -3 -120 -3 -87 0 -129 -4 -150 -15 -57 -30 -67 -152 -16
-204 l26 -26 319 -3 c176 -2 334 1 352 5 48 13 74 54 74 117 0 61 -17 99 -52
115 -14 6 -81 11 -157 11 l-134 0 39 39 c28 28 39 47 39 69 0 37 -60 172 -89
201 -29 29 -76 26 -136 -8z"/>
<path d="M21375 4823 c-38 -10 -65 -36 -75 -72 -5 -20 -10 -147 -10 -283 l0
-248 -166 0 -166 0 -28 -28 c-19 -20 -31 -44 -35 -75 -11 -73 2 -136 35 -169
l28 -28 166 0 166 0 0 -375 0 -375 -187 0 c-234 0 -258 -6 -285 -67 -16 -37
-19 -60 -16 -113 6 -77 26 -114 70 -129 21 -7 209 -11 560 -11 590 0 586 0
613 64 21 49 19 152 -3 196 -25 51 -59 59 -254 59 l-168 1 0 375 0 375 161 0
161 0 27 28 c19 19 30 43 35 75 11 72 -2 137 -35 169 l-27 28 -161 0 -161 0 0
268 c0 297 -1 301 -66 328 -32 13 -137 17 -179 7z"/>
<path d="M11570 4791 c-45 -23 -93 -91 -93 -131 0 -44 25 -65 111 -90 42 -13
111 -38 154 -56 104 -46 130 -45 183 9 51 50 74 114 57 152 -15 34 -110 79
-228 110 -115 30 -139 31 -184 6z"/>
<path d="M2909 4761 c-31 -32 -39 -84 -19 -136 19 -50 53 -55 360 -55 272 0
280 -1 280 -20 0 -19 -10 -19 -376 -22 l-376 -3 -29 -33 -29 -32 0 -146 c0
-139 1 -146 24 -169 47 -47 178 -48 224 -1 22 22 27 36 30 96 6 103 -3 100
288 100 l242 0 3 -124 c5 -147 17 -174 89 -192 l42 -10 -23 -16 c-13 -8 -52
-29 -87 -47 l-62 -31 0 34 c0 48 -19 85 -51 102 -40 20 -358 20 -398 -1 -49
-25 -57 -90 -16 -130 24 -25 26 -25 212 -25 122 -1 182 -4 172 -10 -61 -36
-377 -131 -550 -165 -153 -31 -179 -43 -179 -84 0 -38 55 -117 103 -149 35
-23 50 -27 104 -25 l63 2 0 -65 c0 -36 5 -74 10 -84 23 -44 35 -45 508 -50
l453 -5 -127 -54 -127 -54 -56 12 c-190 42 -280 58 -309 53 -42 -6 -96 -58
-112 -107 -18 -56 1 -69 165 -110 178 -45 476 -134 629 -187 115 -39 119 -40
151 -25 36 17 81 83 91 135 8 42 -23 72 -101 96 -33 10 -64 22 -68 26 -5 4 35
31 89 60 201 107 334 211 334 261 0 24 -16 56 -41 85 l-19 21 54 -5 c46 -4 62
0 98 21 66 38 128 122 128 172 0 34 -17 40 -175 60 -187 24 -444 78 -577 121
-32 10 -45 20 -42 29 4 8 -11 24 -38 41 -24 15 -68 43 -98 62 l-55 36 41 8
c71 15 78 31 84 182 l5 131 244 3 c295 3 286 6 293 -97 3 -39 12 -78 19 -87
24 -29 76 -44 152 -44 l74 0 23 76 c27 91 32 231 11 282 -26 61 -30 62 -446
62 -365 0 -375 1 -375 19 0 19 11 20 306 23 l306 3 24 28 c39 46 31 139 -15
174 -12 10 -193 12 -769 13 l-754 0 -29 -29z m971 -1123 c74 -28 202 -69 283
-93 90 -25 142 -45 132 -49 -9 -3 -125 -6 -258 -6 l-240 0 23 25 c32 34 20 57
-72 135 -40 35 -75 65 -78 67 -3 3 13 -3 35 -12 22 -10 101 -40 175 -67z
m-240 68 c0 -2 -18 -16 -41 -31 -39 -28 -69 -70 -69 -98 0 -8 11 -31 25 -51
l24 -36 -287 1 -287 0 170 53 c175 55 381 128 425 152 25 13 40 17 40 10z"/>
<path d="M14401 4729 c-30 -29 -41 -61 -41 -125 0 -107 39 -154 127 -154 l53
0 0 -270 0 -270 -74 0 c-65 0 -79 -3 -103 -24 -25 -21 -28 -32 -31 -99 -7
-130 26 -167 149 -167 l58 0 3 -384 c3 -438 -1 -416 91 -436 70 -15 133 -4
171 31 l31 27 3 380 3 380 50 4 c71 7 101 38 107 112 10 123 -22 176 -108 176
l-50 0 0 270 0 270 84 0 c60 0 89 -4 99 -14 12 -12 16 -83 21 -388 12 -677 47
-994 126 -1148 54 -105 177 -141 272 -81 56 36 100 118 123 233 l15 77 -57 89
c-32 49 -68 107 -79 128 l-22 39 -6 -90 c-9 -116 -15 -155 -25 -155 -30 0 -43
279 -43 945 0 330 -2 608 -5 618 -12 45 -36 47 -491 47 -421 0 -429 0 -451
-21z"/>
<path d="M610 4671 c-35 -9 -55 -23 -69 -48 -8 -16 -11 -249 -11 -858 l0 -837
28 -28 c22 -21 42 -30 83 -35 30 -3 452 -5 939 -3 696 2 890 6 907 16 55 31
54 2 51 906 -3 803 -4 835 -22 855 -10 11 -35 25 -55 31 -40 11 -1808 12
-1851 1z m492 -456 c-6 -236 -35 -404 -87 -506 -19 -36 -122 -149 -137 -149
-4 0 -8 169 -8 375 0 452 -12 417 138 413 l97 -3 -3 -130z m508 -162 c0 -422
16 -529 88 -599 55 -53 108 -64 309 -64 l173 0 0 -80 c0 -132 66 -120 -655
-120 -602 0 -615 0 -635 20 -18 18 -20 33 -20 151 0 72 4 129 9 127 14 -5 111
-122 111 -134 0 -5 9 -20 20 -32 53 -57 171 2 254 128 103 155 154 379 172
758 l7 142 83 0 84 0 0 -297z m550 277 c19 -19 20 -33 20 -340 l0 -320 -109 0
c-60 0 -116 3 -125 6 -14 5 -16 45 -16 340 l0 334 105 0 c92 0 108 -3 125 -20z"/>
<path d="M4940 4671 c-35 -9 -55 -23 -69 -48 -8 -16 -11 -249 -11 -858 l0
-837 28 -28 c22 -21 42 -30 83 -35 30 -3 452 -5 939 -3 696 2 890 6 907 16 55
31 54 2 51 906 -3 803 -4 835 -22 855 -10 11 -35 25 -55 31 -40 11 -1808 12
-1851 1z m492 -456 c-6 -236 -35 -404 -87 -506 -19 -36 -122 -149 -137 -149
-4 0 -8 169 -8 375 0 452 -12 417 138 413 l97 -3 -3 -130z m508 -162 c0 -422
16 -529 88 -599 55 -53 108 -64 309 -64 l173 0 0 -80 c0 -132 66 -120 -655
-120 -602 0 -615 0 -635 20 -18 18 -20 33 -20 151 0 72 4 129 9 127 14 -5 111
-122 111 -134 0 -5 9 -20 20 -32 53 -57 171 2 254 128 103 155 154 379 172
758 l7 142 83 0 84 0 0 -297z m550 277 c19 -19 20 -33 20 -340 l0 -320 -109 0
c-60 0 -116 3 -125 6 -14 5 -16 45 -16 340 l0 334 105 0 c92 0 108 -3 125 -20z"/>
<path d="M8240 4439 c-66 -26 -74 -68 -40 -199 10 -41 18 -75 17 -75 -68 -29
-81 -52 -74 -134 3 -44 9 -59 31 -78 24 -20 37 -23 118 -23 l90 0 -32 -30
c-30 -28 -32 -34 -28 -80 l5 -50 -63 0 c-52 0 -68 -4 -91 -24 -26 -22 -28 -30
-28 -96 0 -66 2 -74 28 -95 27 -24 27 -24 27 -159 0 -213 6 -219 213 -224 237
-6 277 10 277 112 0 44 -5 61 -24 83 -22 26 -31 28 -108 31 -45 2 -89 9 -95
14 -8 6 -13 34 -13 69 l0 59 84 0 c47 0 96 4 110 10 62 23 76 150 22 197 -24
20 -38 23 -116 23 l-88 0 35 35 c33 33 35 39 30 80 l-5 45 49 0 c69 0 97 14
116 57 25 62 -1 173 -42 173 -19 0 -20 -9 15 95 35 104 37 128 11 154 -25 25
-92 44 -127 35 -38 -10 -58 -51 -84 -174 l-23 -110 -66 0 c-65 0 -65 0 -41 17
39 27 49 45 50 90 0 54 -35 148 -63 168 -24 17 -41 18 -77 4z"/>
<path d="M3093 4280 c-46 -19 -59 -95 -21 -130 20 -19 34 -20 195 -20 171 0
174 0 198 25 14 13 25 35 25 49 0 74 -31 86 -222 85 -84 0 -163 -4 -175 -9z"/>
<path d="M3935 4279 c-51 -29 -60 -85 -20 -124 24 -25 27 -25 193 -25 156 0
171 2 196 21 32 25 35 75 7 110 -19 23 -24 24 -188 27 -111 1 -175 -2 -188 -9z"/>
<path d="M16604 4196 c-66 -29 -64 -8 -64 -558 l0 -498 -125 0 -125 0 0 326
c0 204 -4 332 -10 345 -19 34 -70 52 -145 52 -81 0 -131 -20 -145 -59 -6 -14
-10 -165 -10 -343 l0 -318 -77 -6 c-64 -5 -80 -10 -102 -31 -22 -22 -26 -37
-29 -100 -5 -84 13 -131 54 -146 15 -6 356 -10 869 -10 513 0 854 4 869 10 41
15 59 62 54 146 -3 65 -7 77 -31 101 l-27 28 -340 3 -340 3 0 185 0 184 235 0
c188 0 242 3 264 15 72 36 68 221 -5 254 -16 7 -105 11 -259 11 l-235 0 0 160
c0 192 -8 219 -69 243 -50 21 -163 22 -207 3z"/>
<path d="M13660 4177 c-33 -16 -50 -52 -50 -105 0 -62 22 -99 68 -111 52 -15
468 -13 512 2 43 15 60 47 60 115 0 46 -4 58 -29 83 l-29 29 -254 0 c-183 0
-260 -4 -278 -13z"/>
<path d="M3935 4059 c-52 -29 -62 -93 -20 -134 24 -25 25 -25 220 -25 195 0
196 0 220 25 31 30 33 83 6 116 -19 24 -23 24 -213 27 -129 1 -200 -2 -213 -9z"/>
<path d="M13639 3861 c-24 -25 -29 -37 -29 -81 0 -63 22 -107 58 -117 15 -5
141 -8 279 -8 l253 0 26 27 c53 53 39 175 -22 198 -14 6 -140 10 -280 10
l-256 0 -29 -29z"/>
<path d="M13658 3564 c-44 -24 -50 -63 -46 -342 l3 -254 33 -29 32 -29 251 0
c278 0 298 4 318 61 7 20 11 125 11 281 0 264 -5 294 -49 318 -12 6 -118 10
-273 10 -203 -1 -258 -4 -280 -16z m337 -244 c10 -9 15 -32 15 -76 0 -74 -10
-84 -84 -84 -56 0 -76 24 -76 90 0 47 13 73 40 84 22 8 89 0 105 -14z"/>
<path d="M7589 3427 c-56 -37 -57 -57 -16 -218 20 -78 44 -150 53 -160 41 -46
159 -7 177 57 12 42 -57 288 -90 322 -29 29 -80 29 -124 -1z"/>
<path d="M7117 3370 c-33 -26 -44 -64 -52 -175 -3 -49 -15 -128 -26 -173 -27
-109 -22 -127 44 -158 62 -28 118 -31 139 -6 54 61 96 405 59 475 -28 53 -118
73 -164 37z"/>
<path d="M7381 3376 c-38 -21 -50 -55 -51 -136 0 -120 19 -303 33 -312 6 -4
33 -8 59 -8 97 0 145 81 135 228 -12 180 -41 242 -114 242 -21 -1 -49 -7 -62
-14z"/>
<path d="M11883 2116 c-22 -19 -28 -32 -28 -66 0 -34 6 -47 28 -66 41 -35 100
-33 138 5 85 85 -46 206 -138 127z"/>
<path d="M8470 2105 c-67 -31 -104 -85 -116 -172 -5 -44 -10 -52 -38 -64 -27
-12 -31 -20 -34 -57 -4 -50 10 -72 44 -72 l24 0 0 -199 c0 -195 1 -200 22
-215 12 -9 43 -16 68 -16 25 0 56 7 68 16 21 15 22 20 22 215 l0 199 34 0 c45
0 66 22 66 70 0 48 -21 70 -66 70 -31 0 -34 3 -34 28 0 42 26 72 63 72 38 0
50 7 66 37 16 30 14 68 -4 83 -24 20 -144 23 -185 5z"/>
<path d="M6480 2098 l-25 -14 -3 -369 c-2 -367 -2 -370 19 -387 14 -12 38 -18
70 -18 67 0 89 23 89 91 0 40 6 57 28 85 15 18 30 34 34 34 4 0 25 -34 48 -76
65 -117 75 -125 150 -131 47 -3 70 -1 84 9 17 14 13 23 -79 166 -85 134 -95
155 -84 170 8 9 46 56 86 104 40 47 73 91 73 97 0 26 -137 26 -178 0 -9 -6
-48 -52 -87 -102 l-70 -90 -5 206 c-3 140 -9 210 -17 218 -18 18 -104 22 -133
7z"/>
<path d="M1371 2061 c-142 -36 -224 -234 -193 -466 26 -195 113 -295 257 -295
142 0 230 98 256 286 28 200 -27 386 -133 448 -48 28 -133 40 -187 27z m118
-157 c31 -39 44 -125 39 -254 -5 -128 -20 -178 -63 -206 -24 -16 -30 -16 -53
-3 -51 28 -66 72 -70 204 -7 196 22 285 93 285 24 0 39 -7 54 -26z"/>
<path d="M13963 2060 c-96 -20 -196 -97 -237 -184 -38 -76 -51 -177 -37 -272
27 -186 141 -293 321 -302 102 -5 158 8 205 49 42 37 45 66 9 108 -29 35 -67
41 -95 15 -21 -19 -95 -30 -133 -20 -41 10 -93 63 -112 113 -21 55 -23 161 -5
217 19 55 75 114 122 126 41 11 112 -1 124 -20 3 -6 18 -10 32 -10 31 0 83 53
83 84 0 26 -43 70 -82 85 -40 15 -147 21 -195 11z"/>
<path d="M795 2034 c-8 -9 -67 -102 -129 -208 -118 -199 -141 -259 -117 -305
11 -19 21 -21 159 -23 l147 -3 3 -80 c2 -61 7 -83 19 -92 23 -18 94 -16 121 3
20 13 22 24 22 95 l0 79 28 0 c39 0 52 17 52 65 0 48 -13 65 -52 65 l-28 0 0
198 c0 141 -3 201 -12 210 -19 19 -193 16 -213 -4z m65 -279 l0 -125 -64 0
c-36 0 -67 4 -70 9 -3 5 13 42 36 82 23 41 52 93 65 117 13 23 26 42 28 42 3
0 5 -56 5 -125z"/>
<path d="M2015 2034 c-8 -9 -67 -102 -129 -208 -118 -199 -141 -259 -117 -305
11 -19 21 -21 159 -23 l147 -3 3 -80 c2 -61 7 -83 19 -92 23 -18 94 -16 121 3
20 13 22 24 22 95 l0 79 28 0 c39 0 52 17 52 65 0 48 -13 65 -52 65 l-28 0 0
198 c0 141 -3 201 -12 210 -19 19 -193 16 -213 -4z m65 -279 l0 -125 -64 0
c-36 0 -67 4 -70 9 -3 5 13 42 36 82 23 41 52 93 65 117 13 23 26 42 28 42 3
0 5 -56 5 -125z"/>
<path d="M2677 2043 c-4 -3 -7 -165 -7 -360 l0 -353 26 -10 c33 -13 90 -13
115 0 18 10 19 23 18 188 0 97 -3 207 -8 245 -4 37 -6 67 -4 67 2 0 57 -108
123 -239 69 -139 129 -246 142 -255 15 -10 44 -16 85 -16 97 0 93 -16 93 377
0 288 -2 334 -16 347 -21 22 -127 22 -144 1 -10 -12 -11 -63 -6 -223 3 -114 8
-223 11 -242 3 -21 -42 58 -116 205 -67 132 -128 248 -137 258 -12 13 -31 17
-92 17 -42 0 -80 -3 -83 -7z"/>
<path d="M7352 2038 c-9 -9 -12 -103 -12 -360 l0 -348 26 -10 c14 -6 40 -10
59 -10 19 0 45 4 59 10 l26 10 0 348 c0 257 -3 351 -12 360 -7 7 -39 12 -73
12 -34 0 -66 -5 -73 -12z"/>
<path d="M4077 2013 c-8 -10 -18 -43 -22 -74 -7 -53 -9 -57 -38 -63 -43 -9
-57 -24 -57 -63 0 -50 16 -73 49 -73 l29 0 4 -162 c3 -151 5 -166 27 -201 42
-68 140 -95 244 -66 34 9 37 13 37 47 0 54 -23 82 -66 80 -61 -2 -69 14 -72
167 l-4 135 55 0 c64 0 82 15 82 70 0 55 -18 70 -81 70 l-54 0 0 63 c0 36 -5
68 -12 75 -19 19 -102 15 -121 -5z"/>
<path d="M11477 2013 c-8 -10 -18 -43 -22 -74 -7 -53 -9 -57 -38 -63 -43 -9
-57 -24 -57 -63 0 -50 16 -73 49 -73 l29 0 4 -162 c3 -151 5 -166 27 -201 42
-68 140 -95 244 -66 34 9 37 13 37 47 0 54 -23 82 -66 80 -61 -2 -69 14 -72
167 l-4 135 55 0 c64 0 82 15 82 70 0 55 -18 70 -81 70 l-54 0 0 63 c0 36 -5
68 -12 75 -19 19 -102 15 -121 -5z"/>
<path d="M3562 1877 c-48 -15 -126 -89 -154 -145 -19 -38 -23 -63 -23 -137 0
-79 3 -97 29 -149 20 -40 42 -68 73 -90 63 -44 97 -54 188 -55 104 -1 168 27
173 75 2 19 -4 40 -16 54 -19 23 -21 23 -74 11 -105 -25 -198 10 -198 74 l0
25 143 0 c187 0 191 3 185 109 -7 114 -54 189 -140 225 -42 18 -136 19 -186 3z
m166 -144 c7 -10 12 -29 10 -43 -3 -24 -5 -25 -90 -28 -59 -2 -88 1 -88 8 0
23 32 71 53 80 33 14 99 4 115 -17z"/>
<path d="M5485 1866 c-56 -26 -119 -89 -143 -145 -20 -46 -22 -191 -3 -245 7
-22 32 -60 55 -84 138 -151 375 -113 457 73 31 70 31 190 -1 262 -25 59 -82
116 -144 144 -60 27 -157 25 -221 -5z m156 -126 c65 -35 74 -224 13 -277 -50
-45 -124 -17 -144 55 -39 143 37 272 131 222z"/>
<path d="M6238 1870 c-20 -11 -48 -34 -62 -52 l-25 -33 -7 33 c-12 57 -81 82
-132 46 -22 -15 -22 -18 -22 -269 0 -251 0 -254 22 -269 12 -9 43 -16 68 -16
25 0 56 7 68 16 21 14 22 21 22 166 0 134 2 154 20 183 23 37 74 65 118 65 16
0 35 7 42 15 18 22 25 102 10 120 -17 21 -77 18 -122 -5z"/>
<path d="M7930 1875 c-19 -9 -49 -27 -67 -41 -18 -14 -33 -20 -33 -14 0 6 -11
22 -25 35 -28 29 -79 33 -113 9 -22 -15 -22 -18 -22 -269 0 -251 0 -254 22
-269 12 -9 43 -16 68 -16 25 0 56 7 68 16 21 15 22 21 22 189 l0 173 31 26
c38 32 88 35 115 5 17 -19 19 -41 23 -206 l3 -184 25 -10 c37 -14 96 -11 121
7 23 16 23 17 20 228 -3 190 -5 215 -24 250 -31 60 -64 80 -137 83 -41 2 -74
-2 -97 -12z"/>
<path d="M8855 1866 c-56 -26 -119 -89 -143 -145 -20 -46 -22 -191 -3 -245 7
-22 32 -60 55 -84 138 -151 375 -113 457 73 31 70 31 190 -1 262 -25 59 -82
116 -144 144 -60 27 -157 25 -221 -5z m156 -126 c65 -35 74 -224 13 -277 -50
-45 -124 -17 -144 55 -39 143 37 272 131 222z"/>
<path d="M9608 1870 c-20 -11 -48 -34 -62 -52 l-25 -33 -7 33 c-12 57 -81 82
-132 46 -22 -15 -22 -18 -22 -269 0 -251 0 -254 22 -269 12 -9 43 -16 68 -16
25 0 56 7 68 16 21 14 22 21 22 166 0 134 2 154 20 183 23 37 74 65 118 65 16
0 35 7 42 15 18 22 25 102 10 120 -17 21 -77 18 -122 -5z"/>
<path d="M10081 1879 c-13 -5 -41 -23 -62 -40 -22 -17 -39 -26 -39 -19 0 6
-11 22 -25 35 -28 29 -79 33 -113 9 -22 -15 -22 -18 -22 -269 0 -251 0 -254
22 -269 12 -9 43 -16 68 -16 25 0 56 7 68 16 21 15 22 21 22 192 l0 177 33 23
c34 22 72 28 95 14 24 -16 32 -77 32 -240 l0 -162 26 -10 c32 -13 86 -13 118
0 l26 9 2 183 3 182 34 23 c44 30 85 30 105 1 13 -18 16 -55 16 -200 0 -171 1
-177 22 -192 29 -21 107 -20 137 0 l23 17 -4 206 c-3 198 -4 208 -28 251 -61
109 -188 123 -292 32 l-35 -31 -22 30 c-13 17 -38 37 -57 45 -38 16 -117 18
-153 3z"/>
<path d="M10921 1874 c-72 -26 -91 -42 -91 -78 0 -36 31 -76 59 -76 10 0 32 7
47 15 16 8 53 15 81 15 45 0 55 -4 69 -25 22 -34 7 -51 -54 -58 -109 -14 -197
-61 -225 -120 -39 -81 -8 -191 63 -228 61 -33 170 -19 222 28 16 14 20 13 48
-11 22 -18 43 -26 70 -26 70 0 72 7 68 229 -3 182 -5 199 -27 244 -14 30 -38
58 -63 75 -35 23 -53 27 -132 29 -65 2 -104 -1 -135 -13z m177 -356 c-3 -50
-5 -54 -41 -71 -52 -26 -91 -13 -95 31 -4 37 19 61 76 79 62 19 63 18 60 -39z"/>
<path d="M12315 1866 c-56 -26 -119 -89 -143 -145 -20 -46 -22 -191 -3 -245 7
-22 32 -60 55 -84 138 -151 375 -113 457 73 31 70 31 190 -1 262 -25 59 -82
116 -144 144 -60 27 -157 25 -221 -5z m156 -126 c65 -35 74 -224 13 -277 -50
-45 -124 -17 -144 55 -39 143 37 272 131 222z"/>
<path d="M13080 1875 c-19 -9 -49 -27 -67 -41 -18 -14 -33 -20 -33 -14 0 6
-11 22 -25 35 -28 29 -79 33 -113 9 -22 -15 -22 -18 -22 -269 0 -251 0 -254
22 -269 12 -9 43 -16 68 -16 25 0 56 7 68 16 21 15 22 21 22 189 l0 173 31 26
c38 32 88 35 115 5 17 -19 19 -41 23 -206 l3 -184 25 -10 c37 -14 96 -11 121
7 23 16 23 17 20 228 -3 190 -5 215 -24 250 -31 60 -64 80 -137 83 -41 2 -74
-2 -97 -12z"/>
<path d="M14505 1866 c-56 -26 -119 -89 -143 -145 -20 -46 -22 -191 -3 -245 7
-22 32 -60 55 -84 138 -151 375 -113 457 73 31 70 31 190 -1 262 -25 59 -82
116 -144 144 -60 27 -157 25 -221 -5z m156 -126 c65 -35 74 -224 13 -277 -50
-45 -124 -17 -144 55 -39 143 37 272 131 222z"/>
<path d="M4445 1867 c-20 -15 -19 -18 43 -271 42 -165 70 -260 81 -270 13 -12
39 -16 94 -16 95 0 98 3 126 155 33 174 43 217 46 213 2 -2 20 -77 40 -168 20
-92 43 -172 52 -182 13 -14 32 -18 93 -18 45 0 83 5 93 13 24 18 144 524 128
540 -18 18 -117 15 -136 -4 -11 -11 -27 -78 -47 -195 -17 -98 -34 -182 -37
-186 -4 -5 -26 76 -50 180 -48 213 -53 222 -131 222 -52 0 -76 -15 -85 -53 -3
-12 -21 -96 -41 -187 -19 -90 -37 -166 -39 -168 -4 -4 -11 30 -51 238 -14 74
-32 141 -39 149 -21 21 -115 26 -140 8z"/>
<path d="M11890 1868 l-25 -14 -3 -254 c-2 -250 -2 -255 19 -272 27 -23 106
-24 137 -2 22 15 22 18 22 268 0 216 -2 255 -15 266 -23 19 -105 23 -135 8z"/>
<path d="M15073 1505 c-102 -44 -71 -204 40 -205 49 0 73 13 92 50 49 95 -37
197 -132 155z"/>
</g>
</svg>
